<svg xmlns="http://www.w3.org/2000/svg" fill-rule="evenodd" stroke-linejoin="round" stroke-miterlimit="2" clip-rule="evenodd" viewBox="0 0 1290 400"><g fill-rule="nonzero"><path fill="#e6eaf6" d="M460.772 298.307c-100.948 0-429.894 58.89-390.7 35.671 40.04-23.722 63.349-67.833 87.552-81.536 42.807-24.236 61.022-66.652 88.629-66.652 18.354 0 38.534 25.084 56.061 36.662 24.576 16.232 19.006-10.158 82.354 53.226 27.593 27.606 76.104 22.629 76.104 22.629z"/><path fill="#e6eaf6" d="M277.817 239.498c19.957-.243 58.161-39.321 80.255-39.807 22.096-.485 42.943 21.241 83.234 31.07 21.827 5.324 110.75-35.092 166.247-19.488 55.496 15.605 119.822 12.893 167.601-8.323s95.465 15.721 170.22 21.038c16.969 1.207 33.582 7.297 50.39 6.792 68.729-2.065 112.111 36.5 143.131 36.5 0 0-48.229-19.655-64.444-27.663-34.199-16.886-73.614-16.133-129.077-20.078-74.755-5.317-128.815-38.454-176.594-17.238-47.779 21.217-105.539 15.268-161.035-.336s-144.612 29.671-166.439 24.347c-40.291-9.828-60.856-29.609-82.95-29.123-22.096.485-60.582 40.067-80.539 40.31z"/><path fill="#d4dbef" d="M957.279 260.405c-55.589-9.03-136.538-63.464-178.457-49.319-40.475 13.657-148.556 42.346-168.737 44.648-95.458 10.892-66.627-42.281-145.426-18.577-78.8 23.703-182.584 82.642 72.391 81.362 254.975-1.283 768.127-1.594 420.229-58.114z"/><path fill="#fff" d="M363.502 287.98c-60.115 0-87.885-58.517-124.924-58.517-48.368 0-39.682 65.131-174.531 104.08 0 0 50.917-20.046 74.257-34.443 60.518-37.336 63.884-72.016 100.274-72.016 26.253 0 48.259 29.173 79.604 46.865 20.433 11.533 45.32 14.031 45.32 14.031z"/><path fill="#a4ca4f" d="M1280 328.737c0-6.039-22.183-29.445-52.595-33.26-39.398-4.941-53.468-50.031-91.334-40.793-92.357 22.53-121.733-27.618-167.425-67.827-100.672-88.598-124.017 7.924-200.999 44.996-60.447 29.109-75.545 11.692-91.784 23.028-64.932 45.333-65.159 62.647-104.079 73.856z"/><path fill="#c5dd7b" d="M678.253 261.708c9.409-7.407 46.082-2.95 94.862-18.634-22.74 17.822-66.951 24.047-60.68 35.774-30.172 6.629-48.967-5.5-34.182-17.14z"/><path fill="#c5dd7b" d="M666.986 252.999s69.366 14.505 106.798 47.271c-36.72 28.467-52.564-2.1-52.564-2.1z"/><path fill="#b9d45b" d="M1132.92 304.775s55.399-12.613 72.101-10.171c-29.329-17.719-50.714-1.043-72.101 10.171zM901.424 165.779c29.203.831 65.075 25.508 87.885 51.208 22.813 25.699-123.646-52.227-87.885-51.208z"/><path fill="#c5dd7b" d="M800.207 248.746c39.157 10.722 70.955 27.714 85.097 33.477 25.442 10.368 41.55 6.632 70.415 8.811-15.427-9.968-29.664-21.196-43.154-33.578-24.065-22.089-84.397-19.608-112.358-8.71z"/><path fill="#fff" d="M1136.07 323.963c-55.486-28.771-113.233-9.971-216.927-72.234-60.137-36.108-97.739-7.541-129.071-17.082-59.178-18.021-75.925 22.779-131.066 22.958 0 0 13.739-3.502 20.076-4.69 43.065-8.073 57.591-36.201 109.138-20.096 31.252 9.765 74.241-18.929 129.487 12.767 39.321 22.56 79.079 7.94 122.344 20.923 56.213 16.871 96.019 57.454 96.019 57.454z"/><path fill="#fff" d="M903.706 264.778c-51.204 26.037-143.871-20.829-200.569 22.567 66.94-28.353 176.341 2.893 200.569-22.567z"/><path fill="#6ba342" d="m970.406 219.676-.732-3.187c-.448-1.96-1.176-1.96-1.626 0l-.73 3.187c-.448 1.959.242 3.547 1.544 3.547s1.992-1.588 1.544-3.547z"/><path fill="#b9d45b" d="m940.911 221.975-.827-3.602c-.506-2.216-1.328-2.216-1.837 0l-.825 3.602c-.506 2.214.274 4.01 1.745 4.01 1.47 0 2.252-1.796 1.744-4.01z"/><path fill="#6ba342" d="m957.822 229.489-.551-2.398c-.34-1.475-.888-1.475-1.225 0l-.551 2.398c-.337 1.475.185 2.671 1.165 2.671.977 0 1.499-1.196 1.162-2.671z"/><path fill="#a4ca4f" d="m962.135 206.881-.551-2.398c-.337-1.475-.888-1.475-1.225 0l-.548 2.398c-.337 1.475.182 2.67 1.162 2.67.978 0 1.499-1.195 1.162-2.67z"/><path fill="#6ba342" d="m946.465 199.854-.55-2.398c-.338-1.475-.886-1.475-1.223 0l-.551 2.398c-.337 1.475.182 2.671 1.162 2.671s1.5-1.196 1.162-2.671z"/><path fill="#a4ca4f" d="m950.426 193.68-.551-2.399c-.337-1.475-.886-1.475-1.223 0l-.55 2.399c-.338 1.474.184 2.67 1.162 2.67.98 0 1.501-1.196 1.162-2.67z"/><path fill="#fff" d="M953.548 209.697c-.261-1.173-.682-1.173-.941 0-.261 1.172-.05 2.122.472 2.122.519 0 .727-.95.469-2.122zm-21.614-24.06c-.261-1.172-.683-1.172-.944 0-.258 1.172-.047 2.123.472 2.123s.73-.951.472-2.123z"/><path fill="#a4ca4f" d="M935.752 197.229c-.261-1.172-.683-1.172-.941 0-.261 1.173-.05 2.123.472 2.123.519 0 .727-.95.469-2.123z"/><path fill="#568b3e" d="M927.515 216.089c-.258-1.172-.682-1.172-.941 0-.26 1.173-.047 2.123.472 2.123s.73-.95.469-2.123zm5.581-3.002c-.258-1.172-.683-1.172-.941 0-.261 1.172-.047 2.123.472 2.123s.73-.951.469-2.123z"/><path fill="#82b541" d="M1259.1 331.198c0-4.888-92.301-9.775-157.711-9.775-65.411 0-123.152 3.87-157.709 9.775z"/><path fill="#82b541" d="M1221.55 326.31h-4.064l2.032-4.49z"/><path fill="#82b541" d="M1224.91 327.839h-4.066l2.032-4.49zm9.88-.562h-4.066l2.032-4.49zm-33.84-5.741a7.982 7.982 0 0 0-6.421-3.231c-.859 0-1.684.137-2.461.388a8.36 8.36 0 0 0-6.896-3.626 8.378 8.378 0 0 0-7.646 4.956 9.148 9.148 0 0 0-5.098 2.016 14.186 14.186 0 0 0-10.187-4.3c-1.75 0-3.425.319-4.975.901a8.806 8.806 0 0 0-5.633-2.029c-4.348 0-7.958 3.141-8.695 7.278 1.681-2.912 5.728-5.415 8.695-5.415 1.623 0 3.201.567 4.445 1.597l.83.688 1.009-.377a12.263 12.263 0 0 1 4.324-.78 12.27 12.27 0 0 1 8.856 3.736l1.183 1.215 1.317-1.067a7.25 7.25 0 0 1 4.063-1.605l1.11-.082.456-1.014a6.525 6.525 0 0 1 5.946-3.858 6.512 6.512 0 0 1 5.365 2.822l.785 1.139 1.318-.425a6.173 6.173 0 0 1 1.889-.297c1.96 0 3.757.901 4.927 2.479l.685.922s2.596-1.035 4.348-.031c-.603-2.153-3.027-2.09-3.539-2z"/><path fill="#c5dd7b" d="M866.256 329.896c-96.472-7.936-646.231 44.77-695.908 48.57 0 0 255.499-143.32 324.048-204.526 52.506-46.881 58.411-44.925 143.274 39.409 5.841 5.805 34.314 18.508 39.818 24.298 32.858 34.549 70.982-3.099 135.237 76.121 11.473 14.144 53.531 16.128 53.531 16.128z"/><path fill="#fff" d="M573.689 164.774s18.154 6.504 60.582 54.433c19.719 22.276 41.592 15.341 79.658 61.678-46.614-16.054-78.56-49.142-86.933-60.994-13.918-19.692-53.307-55.117-53.307-55.117z"/><path fill="#d4e59c" d="M506.045 178.462c-32.03 30.291-87.257 65.128-117.532 78.602-34.668 15.428 8.721 46.576 35.776 22.727 86.768-76.496 111.009-128.996 81.756-101.329z"/><path fill="#fff" d="M386.378 287.598c-47.605-19.532-71.98-69.503-99.338-48.648-55.91 42.62-98.523 12.528-123.721 64.126-18.167 37.197-44.725 26.615-6.556 31.342s236.875-43.842 229.615-46.82z"/><path fill="#fff" d="M537.801 227.084c24.618 13.06 56.603 14.428 125.838 65.855 18.724 13.907 20.086 67.957-59.169 46.749-82.254-22.01-185.769-40.546-294.233-34.072 12.031-2.925 28.373-15.169 64.508-33.049 23.691 0 86.776-37.154 163.056-45.483z"/><path fill="#82b541" d="M707.316 282.165c-71.915-53.418-100.064-69.871-139.045-69.871-57.214 0-92.177 43.252-123.972 50.814-20.492 4.875-55.296-6.344-72.56-10.224-66.727-14.994-82.794 10.101-133.353 21.621-76.69 17.478-97.628 28.958-160.396 50.256-38.648 13.114-50.568 23.169-51.353 30.665 66.232-1.858 71.918-.561 89.428-.833 99.783-1.554-15.202 10.2 114.544 10.2 96.587 0 174.137-1.794 235.539-4.666h315.794c82.043 0-55.905-64.055-74.626-77.962z"/><path fill="#6ba342" d="M761.958 318.168c-25.3-21.83-59.672-47.24-102.614-72.155-51.283-29.758-8.099 1.554 53.782 57.748 18.254 16.581 78.87 40.327 48.832 14.407z"/><path fill="#a4ca4f" d="M541.58 221.56c-77.496 19.42-87.761 62.494-54.264 46.506 33.498-15.987 95.729-56.897 54.264-46.506zm74.141 21.036c-61.415-9.445-104.664 40.689-160.843 47.848-35.576 9.196 18.036 6.474 66.35-7.241 63.008-12.341 133.692-34.579 94.493-40.607z"/><path fill="#d4de64" d="m298.704 274.787-3.201-9.917-3.204 9.917z"/><path fill="#d4de64" d="m294.602 278.389-3.202-9.914-3.201 9.914z"/><path fill="#a4ca4f" d="m316.574 268.066-3.201-9.915-3.201 9.915z"/><path fill="#fff" d="M448.33 364.271c30.468-28.014 105.75-17.978 157.27-71.161 51.518-53.183 122.468 78.4 199.473 65.778l8.171-3.649c-77.005 12.621-156.405-117.705-207.926-64.521-51.517 53.183-135.734 42.97-166.202 70.987z"/><path fill="#4f7f3e" d="M799.166 363.634c0-7.739-126.544-14.553-199.036-14.553-72.489 0-199.03 1.173-199.03 14.553z"/><path fill="#6ba342" d="M250.334 293.822c29.17.551 99.253 37.769 225.51 8.927-132.141 12.134-189.656-10.769-225.51-8.927z"/><path fill="#d4de64" d="M443.332 276.223c-100.841-16.468-92.804 5.368-186.078 6.464-54.989.651-51.493 41.373-149.384 38.483 64.553-47.015 118.658-40.873 148.928-40.873 15.984 0 64.543-20.588 92.868-22.846 25.316-2.02 64.563 10.337 93.666 18.772z"/><path fill="#d4de64" d="M494.396 287.872c-52.521 9.417-91.428-10.368-132.38 7.652-40.952 18.015-85.803-12.429-136.325 15.499-2.497 1.378-3.444 3.712-3.444 3.712 44.041-24.945 101.526 4.527 142.478-13.491 40.951-18.017 86.39 7.067 136.62-10.932 24.655-8.837 30.681-9.185-6.949-2.44z"/><path fill="#348c5f" d="m315.96 304.564-2.347 5.183h11.928l-2.348-5.183h1.239l-2.314-5.227h1.299l-3.839-8.132-3.842 8.132h1.299l-2.316 5.227z"/><path fill="#d4de64" d="M647.111 340.286a14.82 14.82 0 0 0-11.931-6.005c-1.594 0-3.128.256-4.572.719-2.806-4.068-7.496-6.735-12.816-6.735-6.326 0-11.775 3.784-14.205 9.209a16.992 16.992 0 0 0-9.475 3.747c-4.801-4.927-11.504-7.989-18.924-7.989-3.257 0-6.371.59-9.251 1.671a16.352 16.352 0 0 0-10.464-3.768c-8.078 0-14.786 5.836-16.159 13.52 3.122-5.41 10.642-10.061 16.159-10.061 3.015 0 5.948 1.054 8.259 2.97l1.544 1.275 1.873-.701a22.859 22.859 0 0 1 8.039-1.449c6.242 0 12.084 2.467 16.45 6.946l2.2 2.258 2.45-1.987a13.467 13.467 0 0 1 7.549-2.982l2.061-.148.843-1.887a12.125 12.125 0 0 1 11.051-7.167c3.981 0 7.707 1.961 9.97 5.241l1.46 2.116 2.445-.788a11.497 11.497 0 0 1 3.513-.556c3.646 0 6.98 1.681 9.153 4.611l1.273 1.713s4.827-1.926 8.081-.058c-1.122-4-5.625-3.881-6.576-3.715z"/><path fill="#4f7f3e" d="M576.582 352.056c-.78-4.01-5.262-7.088-10.693-7.088h-.2c-1.499-3.191-4.951-5.423-8.969-5.423-4.64 0-8.524 2.978-9.52 6.97-1.852.458-3.496 1.262-4.798 2.305a6.918 6.918 0 0 0-9.949 3.236z"/><path fill="#d4de64" d="M155.752 351.93c-.732 0-1.427.15-2.077.387a6.834 6.834 0 0 0-5.725-3.099c-.093 0-.184.008-.277.013a5.86 5.86 0 0 0-5.667-4.379c-.142 0-.282.011-.422.021a6.423 6.423 0 0 0-6.353-7.351 6.343 6.343 0 0 0-4.027 1.446 5.716 5.716 0 0 0-1.506-.208 5.76 5.76 0 0 0-5.215 3.323 6.361 6.361 0 0 0-10.21-1.681 5.66 5.66 0 0 0-4.136-1.792 5.685 5.685 0 0 0-5.482 4.19 4.77 4.77 0 0 0-.962-.095 4.77 4.77 0 0 0-4.26 2.619 6.083 6.083 0 0 0-2.994-.783c-3.182 0-5.77 2.424-6.094 5.52a6.003 6.003 0 0 0-.957-.097c-.304 0-.598.047-.893.09-1.594-3.141-4.845-5.297-8.608-5.297a9.595 9.595 0 0 0-4.732 1.244 9.495 9.495 0 0 0-6.247-2.337 9.527 9.527 0 0 0-6.801 2.843 6.882 6.882 0 0 0-5.955-3.433 6.89 6.89 0 0 0-6.584 4.861 8.06 8.06 0 0 0-4.386 4.695 6.623 6.623 0 0 0-9.325 3.5h125.658a6.06 6.06 0 0 0-5.763-4.2z"/><path fill="#6ba342" d="m160.422 355.429-3.004-2.15-3.169 1.673-2.574-1.597-2.188 2.508-5.074-3.754-4.179 3.897-1.515-2.464-3.364 1.887-5.383-4.356-2.355 4.646-3.029-4.208-2.187 1.596-1.683-2.176-1.85 5.222-4.055-9.053-3.435 8.076-2.81-4.158-2.352 3.143-2.188-2.321-3.027 2.759-3.03-2.614-2.017 2.759-3.746-2.812-2.311 2.519-2.864-1.349-1.252.701-2.667-3.742-2.302 4.828-3.197-3.049-1.851 3.049-2.524-3.049-1.682 2.176-2.019-2.466-3.869 2.901-3.567-6.108-2.687 6.264-2.56-2.298-3.186 2.917-2.872-3.776-4.278 3.536-.906-2.63-1.44 2.904-4.412-4.619-5.215 2.756-4.038-1.307-2.356 2.032-2.692-6.095-.841 6.385-5.374-.522-5.282 2.403h152.074l-1.914-2.026z"/><path fill="#fff" d="M87.3 328.147s-25.762-.659-43.082 14.51c30.468-10.199 43.082-14.51 43.082-14.51z"/><path fill="#82b541" d="M239.207 299.163c-44.992 4.437-25.295 31.645-140.816 33.205-7.894.105-15.997 2.171-15.997 2.171 161.099 2.596 101.198-33.798 176.912-34.604 0 0-9.789-1.787-20.099-.772z"/><path fill="#1d5b33" d="M496.886 366.018H109.467s82.328-43.913 132.312-31.036c49.982 12.877 201.1-28.7 255.107 31.036z"/><path fill="#fff" d="m100.574 334.46-1.809-6.998-1.967 6.998z"/><path fill="#a4ca4f" d="m78.097 326.403-1.809-7.001-1.966 7.001z"/><path fill="#fff" d="m86.058 337.617-1.945-3.486-2.114 3.486z"/><path fill="#a4ca4f" d="m72.75 328.147-1.946-3.489-2.113 3.489z"/><path fill="#fff" d="m95.236 338.755-1.529-5.763-1.66 5.763zm350.839-13.678-.841-3.971c-.516-2.44-1.354-2.44-1.87 0l-.841 3.971c-.516 2.443.279 4.422 1.776 4.422s2.292-1.979 1.776-4.422z"/><path fill="#568b3e" d="m492.078 331.409-.838-3.971c-.517-2.44-1.357-2.44-1.874 0l-.837 3.971c-.517 2.442.279 4.421 1.775 4.421 1.497 0 2.29-1.979 1.774-4.421zm-28.152-9.151-.84-3.971c-.517-2.44-1.354-2.44-1.871 0l-.84 3.971c-.517 2.442.279 4.421 1.775 4.421 1.497 0 2.293-1.979 1.776-4.421z"/><path fill="#fff" d="m475.686 320.98-.841-3.968c-.516-2.443-1.354-2.443-1.87 0l-.841 3.968c-.514 2.442.279 4.421 1.779 4.421 1.494 0 2.289-1.979 1.773-4.421z"/><path fill="#568b3e" d="M469.552 307.379c-.332-1.502-.872-1.502-1.204 0-.332 1.496-.063 2.713.601 2.713.666 0 .935-1.217.603-2.713zm11.412-3.162c-.332-1.502-.872-1.502-1.204 0-.332 1.499-.064 2.714.603 2.714.664 0 .933-1.215.601-2.714zm9.941 10.542c-.332-1.499-.869-1.499-1.204 0-.332 1.499-.063 2.716.603 2.716.664 0 .933-1.217.601-2.716z"/><path fill="#fff" d="M542.183 310.762c-.334-1.5-.872-1.5-1.204 0-.335 1.499-.063 2.714.601 2.714.666 0 .935-1.215.603-2.714z"/><path fill="#568b3e" d="M512.269 291.732c-.3-1.351-.785-1.351-1.083 0-.298 1.347-.055 2.443.543 2.443s.84-1.096.54-2.443zm-4.342 24.531c-.332-1.499-.872-1.499-1.204 0-.332 1.502-.064 2.717.6 2.717.667 0 .936-1.215.604-2.717zm19.656-20.062c-.3-1.349-.782-1.349-1.083 0-.298 1.352-.055 2.445.543 2.445s.841-1.093.54-2.445zm2.846-2.303c-.301-1.349-.783-1.349-1.083 0-.298 1.349-.058 2.443.543 2.443.598 0 .838-1.094.54-2.443zm27.511 2.846c-.298-1.349-.783-1.349-1.083 0-.298 1.349-.058 2.443.543 2.443.598 0 .84-1.094.54-2.443zm-54.082 8.977c-.332-1.499-.869-1.499-1.204 0-.332 1.499-.063 2.717.604 2.717.664 0 .932-1.218.6-2.717zm-56.484 6.627c-.332-1.499-.87-1.499-1.204 0-.332 1.499-.063 2.717.603 2.717.664 0 .933-1.218.601-2.717zm8.107-8.516c-.334-1.499-.872-1.499-1.204 0-.332 1.502-.063 2.717.601 2.717.667 0 .935-1.215.603-2.717zm-19.108 9.91c-.332-1.499-.872-1.499-1.204 0s-.063 2.714.601 2.714c.666 0 .935-1.215.603-2.714zm33.068 1.918c-.624-1.499-1.633-1.499-2.258 0-.622 1.502-.118 2.717 1.128 2.717 1.249 0 1.752-1.215 1.13-2.717zm-7.683-3.012c-.622-1.499-1.634-1.499-2.258 0-.622 1.502-.116 2.717 1.13 2.717s1.752-1.215 1.128-2.717zm118.558-66.506c-.261-1.173-.68-1.173-.941 0-.258 1.172-.05 2.122.469 2.122.522 0 .732-.95.472-2.122zm15.303-1.06c-.258-1.173-.682-1.173-.94 0-.261 1.172-.051 2.123.471 2.123.519 0 .73-.951.469-2.123zm-33.073 9.031c-.258-1.173-.68-1.173-.941 0-.261 1.172-.05 2.122.469 2.122.522 0 .733-.95.472-2.122zm-4.466 5.02c-.259-1.171-.68-1.171-.941 0-.258 1.172-.05 2.122.472 2.122.519 0 .729-.95.469-2.122z"/><path fill="#fff" d="M587.638 251.674c-.49-1.172-1.278-1.172-1.765 0-.488 1.172-.093 2.123.88 2.123.975 0 1.37-.951.885-2.123z"/><path fill="#568b3e" d="m535.335 280.763-.477-2.263c-.295-1.394-.775-1.394-1.067 0l-.48 2.263c-.295 1.392.159 2.522 1.012 2.522.854 0 1.307-1.13 1.012-2.522z"/><path fill="#fff" d="m573.599 266.562-.477-2.265c-.295-1.392-.774-1.392-1.069 0l-.48 2.265c-.293 1.393.161 2.522 1.014 2.522.854 0 1.307-1.129 1.012-2.522z"/><path fill="#c5dd7b" d="m565.792 273.538-.477-2.262c-.295-1.392-.775-1.392-1.067 0l-.48 2.262c-.295 1.394.158 2.525 1.012 2.525.857 0 1.307-1.131 1.012-2.525z"/><path fill="#568b3e" d="M552.725 279.338c-.189-.857-.495-.857-.685 0-.192.854-.039 1.547.34 1.547.382 0 .535-.693.345-1.547zm3.568-3.568c-.356-.854-.933-.854-1.289 0-.355.856-.065 1.549.644 1.549.714 0 1.001-.693.645-1.549zm-10.937 1.982c-.356-.854-.933-.854-1.289 0-.356.856-.066 1.549.643 1.549.712 0 1.001-.693.646-1.549z"/><path fill="#c5dd7b" d="M520.956 307.379c-.624-1.502-1.636-1.502-2.26 0-.622 1.499-.116 2.713 1.13 2.713s1.752-1.214 1.13-2.713z"/><path fill="#568b3e" d="M519.655 291.324c-.562-1.349-1.471-1.349-2.032 0s-.105 2.443 1.017 2.443c1.123 0 1.576-1.094 1.015-2.443zm24.259.949c-.561-1.349-1.47-1.349-2.031 0s-.106 2.442 1.017 2.442c1.12 0 1.576-1.093 1.014-2.442zm12.874-1.492c-.561-1.349-1.47-1.349-2.031 0s-.105 2.443 1.017 2.443c1.12 0 1.576-1.094 1.014-2.443z"/><path fill="#82b541" d="M534.595 323.944c-.562-1.349-1.471-1.349-2.032 0s-.105 2.443 1.017 2.443c1.12 0 1.576-1.094 1.015-2.443z"/><path fill="#568b3e" d="M569.257 291.053c-.561-1.349-1.47-1.349-2.032 0-.561 1.349-.105 2.442 1.015 2.442 1.122 0 1.578-1.093 1.017-2.442zm2.511 9.253c-.561-1.349-1.47-1.349-2.032 0-.561 1.349-.105 2.443 1.018 2.443 1.119 0 1.575-1.094 1.014-2.443z"/><path fill="#82b541" d="M539.627 317.468c-.624-1.497-1.633-1.497-2.258 0-.624 1.501-.118 2.719 1.128 2.719 1.249 0 1.752-1.218 1.13-2.719z"/><path fill="#568b3e" d="M531.348 307.679c-.624-1.499-1.633-1.499-2.258 0-.622 1.499-.118 2.716 1.131 2.716 1.246 0 1.752-1.217 1.127-2.716zm-77.874 8.584c-.622-1.499-1.634-1.499-2.256 0-.624 1.502-.121 2.717 1.128 2.717 1.246 0 1.752-1.215 1.128-2.717zm37.55-11.193-.841-3.97c-.516-2.44-1.351-2.44-1.871 0l-.837 3.97c-.517 2.443.276 4.422 1.773 4.422 1.499 0 2.292-1.979 1.776-4.422z"/><path fill="#c5dd7b" d="m509.249 305.521-.837-3.968c-.52-2.443-1.355-2.443-1.871 0l-.841 3.968c-.516 2.442.28 4.421 1.776 4.421 1.497 0 2.29-1.979 1.773-4.421z"/><path fill="#568b3e" d="m498.104 315.312-.841-3.968c-.516-2.443-1.354-2.443-1.871 0l-.837 3.968c-.517 2.443.276 4.422 1.773 4.422s2.292-1.979 1.776-4.422z"/><path fill="#c5dd7b" d="m528.64 279.306-.756-3.57c-.464-2.2-1.22-2.2-1.684 0l-.756 3.57c-.464 2.198.25 3.979 1.596 3.979 1.347 0 2.064-1.781 1.6-3.979z"/><path fill="#fff" d="m505.735 290.602-.757-3.573c-.463-2.195-1.217-2.195-1.681 0l-.756 3.573c-.464 2.198.25 3.979 1.597 3.979 1.346 0 2.063-1.781 1.597-3.979z"/><path fill="#568b3e" d="m551.137 291.01-.757-3.572c-.466-2.198-1.217-2.198-1.683 0l-.754 3.572c-.466 2.195.25 3.977 1.597 3.977 1.346 0 2.06-1.782 1.597-3.977zm28.248-2.542-.756-3.573c-.466-2.195-1.217-2.195-1.681 0l-.756 3.573c-.466 2.197.25 3.978 1.597 3.978 1.346 0 2.06-1.781 1.596-3.978z"/><path fill="#fff" d="m564.959 294.533-.756-3.573c-.464-2.197-1.217-2.197-1.684 0l-.753 3.573c-.464 2.198.25 3.976 1.597 3.976 1.346 0 2.06-1.778 1.596-3.976z"/><path fill="#c5dd7b" d="m537.659 301.028-.756-3.573c-.464-2.197-1.217-2.197-1.684 0l-.753 3.573c-.467 2.198.247 3.976 1.596 3.976 1.347 0 2.061-1.778 1.597-3.976z"/><path fill="#6ba342" d="M174.987 314.382c-.19.775.308 1.41 1.107 1.41h.55c.799 0 1.319-.641 1.154-1.423l-.996-4.722c-.165-.782-.456-.785-.647-.01zm24.574-6.068c-.122.79.263 1.436.858 1.436.594 0 .993-.648.888-1.441l-.613-4.638c-.106-.793-.292-.793-.414-.002zm-3.254 5.054c-.122.79.264 1.436.858 1.436.593 0 .994-.648.889-1.442l-.616-4.637c-.104-.793-.291-.793-.414-.003zm8.599-.161c-.328.696-.1 1.267.51 1.267.609 0 .877-.571.596-1.267-.281-.701-.779-.701-1.106 0z"/><path fill="#fff" d="M193.137 302.211c.799 0 1.132-.571.738-1.267l-.854-1.51c-.394-.695-.971-.661-1.283.074l-.578 1.365c-.312.735.086 1.338.886 1.338z"/><path fill="#6ba342" d="M164.62 320.366c-.541.588-.331 1.067.468 1.067h2.499c.799 0 1.01-.479.468-1.07l-.732-.793a1.322 1.322 0 0 0-1.97 0zm1.972-4.796c-.542.588-.331 1.07.468 1.07h2.499c.798 0 1.01-.482.468-1.07l-.733-.793a1.322 1.322 0 0 0-1.97 0zm-16.992 5.684c-.542.588-.331 1.07.468 1.07h2.499c.8 0 1.009-.482.468-1.07l-.732-.793a1.32 1.32 0 0 0-1.97 0zm60.999-29.622c-.282-.695-.78-.695-1.107 0-.328.699-.098 1.27.511 1.27.608 0 .876-.571.596-1.27zm-4.084 3.065c-.327.698-.097 1.267.512 1.267.608 0 .876-.569.595-1.267-.28-.696-.779-.696-1.107 0zm-20.786 13.208c-.358.715.004 1.3.803 1.3h2.716c.798 0 1.195-.601.879-1.336l-1.448-3.381c-.315-.735-.864-.751-1.223-.037zm-2.556 9.149c-.498.627-.251 1.138.548 1.138h2.479c.799 0 1.085-.54.634-1.201l-.846-1.241c-.451-.659-1.228-.688-1.726-.064z"/><path fill="#fff" d="M170.289 306.899c-.265.754.173 1.37.972 1.37h1.003c.799 0 1.265-.627 1.035-1.391l-.967-3.223c-.23-.764-.635-.774-.9-.018z"/><path fill="#6ba342" d="M211.685 308.651c-.281-.695-.779-.695-1.107 0-.327.698-.097 1.27.511 1.27.609 0 .877-.572.596-1.27zm-31.612-4.2c-.282-.698-.78-.698-1.107 0-.328.696-.098 1.268.51 1.268s.877-.572.597-1.268zm17.695-7.354c.798 0 1.13-.569.737-1.265l-.854-1.509c-.394-.696-.972-.664-1.284.073l-.577 1.363c-.313.735.087 1.338.886 1.338zm-9.459-.941c.608 0 .877-.569.595-1.267-.28-.698-.779-.698-1.107 0-.326.698-.096 1.267.512 1.267z"/><path fill="#fff" d="M10 360.042h7.928l-1.593-3.09-2.371 1.08-1.296-1.91z"/><path fill="#82b541" d="m252.625 366.511-2.274-2.69-2.668.572-6.639-2.583-6.001 2.219-.953-.353-2.471 1.096-3.09-.482-4.881.854-6.608-5.655-4.836 3.786-2.94.72-4.066-2.53-4.601 2.862-4.492-6.532-5.256 6.582-1.303-1.615-2.942 2.142-4.233-7.765-3.857 7.135-3.541-1.655-4.302 2.306-1.262.295-1.383-.445-2.032.651-2.49-6.106-2.847 6.245-2.287-.379-.261.039-2.907-1.278-3.123 1.373-1.909-.988-1.474.764-1.606-.722-2.204.746-1.323-2.105-2.723 1.997-2.972-2.506-2.775.967-2.8-6.058-2.77 6.709-5.193-9.175-5.149 8.29-1.429-2.509-2.512 3.802-3.618-1.011-8.515 2.99z"/><path fill="#1d5b33" d="m632.7 355.914-5.177 3.364-1.697-.537-3.339 1.315.006-.116-6.042-3.405-4.585 1.753-8.376-4.654-8.469 4.683-7.525-3.363-7.162 5.834-.116-.024-5.799-3.006-5.979 3.254-1.046-.111-2.429 2.014h77.698z"/><path fill="#d4de64" d="m153.205 298.749-1.809-7.001-1.967 7.001zm-3.378 3.71-1.809-6.998-1.967 6.998zm9.916-7.496-1.809-7.001-1.967 7.001z"/><path fill="#6ba342" d="m249.841 349.316-1.935-4.432-2.1 4.432zm-72.381 25.01-2.869-4.945-2.869 4.945zm-40.233 2.474-2.08-4.945-2.067 4.856-2.821-2.237-2.09 2.326zm-35.865-14.555-1.229-2.092-2.476 2.092zm-21.465 1.415-1.758-4.803-1.428 4.803z"/><path fill="#a4ca4f" d="m614.09 243.542-1.025 3.356h8.158l-1.023-3.356h.946l-1.81-5.461h.83l-3.02-7.685-3.022 7.685h.83l-1.813 5.461z"/><path fill="#568b3e" d="m686.871 264.996-1.022 3.356h8.158l-1.023-3.356h.946l-1.813-5.462h.83l-3.019-7.685-3.022 7.685h.83l-1.811 5.462z"/><path fill="#a4ca4f" d="m556.396 254.126-2.19-6.363h1.078l-2.811-8.174-2.815 8.174h1.078l-2.189 6.363zm21.277-16.005-2.38-5.109h1.17l-3.053-6.562-3.052 6.562h1.17l-2.379 5.109zm48.082-1.888-1.023 3.356h8.158l-1.025-3.356h.946l-1.808-5.461h.828l-3.02-7.686-3.019 7.686h.827l-1.81 5.461z"/><path fill="#6ba342" d="m601.087 241.47-.643 3.356h5.133l-.643-3.356h.595l-1.138-5.461h.522l-1.903-7.686-1.9 7.686h.519l-1.135 5.461zm63.975 8.174-.643 3.355h5.133l-.643-3.355h.596l-1.141-5.462h.521l-1.899-7.685-1.9 7.685h.519l-1.138 5.462z"/><path fill="#568b3e" d="m650.502 268.028-1.025 3.355h8.16l-1.025-3.355h.946l-1.81-5.462h.83l-3.022-7.685-3.02 7.685h.83l-1.813 5.462zm58.877 14.577-1.023 3.357h8.158l-1.022-3.357h.946l-1.811-5.459h.831l-3.023-7.686-3.022 7.686h.83l-1.81 5.459zm36.09 31.437-1.641 5.383h13.092l-1.641-5.383h1.518l-2.907-8.764h1.334l-4.851-12.334-4.846 12.334h1.328l-2.904 8.764z"/><path fill="#4f7f3e" d="m518.622 347.585-1.644 5.385h13.093l-1.642-5.385h1.518l-2.904-8.764h1.331l-4.851-12.334-4.846 12.334h1.331l-2.906 8.764z"/><path fill="#348c5f" d="m768.272 352.48-3.428 6.561h25.882l-3.428-6.561h2.828l-3.718-7.533h2.608l-3.488-7.536h2.379l-3.241-7.536h2.132l-2.98-7.535h1.87l-7.904-22.07-7.9 22.07h1.866l-2.978 7.535h2.132l-3.238 7.536h2.374l-3.489 7.536h2.611l-3.72 7.533z"/><path fill="#b9d45b" d="m706.164 333.116-2.535-7.006h1.692l-5.278-14.948-5.275 14.948h1.692l-2.535 7.006h1.736l-.674 1.832H705.1l-.675-1.832z"/><path fill="#d4de64" d="m682.379 320.305-3.257-7.712-3.259 7.712zm-11.283 17.399-2.737-3.676-2.741 3.676z"/><path fill="#4f7f3e" d="m690.442 345.893-2.741-3.676-2.737 3.676zm20.831 4.002-1.565 4.601h18.371l-1.56-4.601h1.952l-3.675-10.624h2.018l-3.773-10.623h2.116l-6.261-16.906-6.261 16.906h2.116l-3.775 10.623h2.02l-3.675 10.624zm30.707 7.107h14.94l-7.47-20.595z"/><path fill="#d4de64" d="m538.942 255.72-.658 2.506h5.248l-.658-2.506h.608l-1.164-4.079h.532l-1.942-5.742-1.945 5.742h.533l-1.165 4.079zm44.636-14.74-1.589-3.988-1.486 3.988zm-53.262 13.898-1.589-3.988-1.484 3.988z"/><path fill="#5d813e" d="m682.439 260.772-1.588-3.99-1.484 3.99z"/><path fill="#6ba342" d="m660.085 247.126-1.592-3.99-1.483 3.99z"/><path fill="#5d813e" d="m700.043 272.953-1.589-3.989-1.483 3.989zm25.135 25.217-3.249-8.153-3.033 8.153z"/><path fill="#d4de64" d="m556.889 235.146-1.589-3.99-1.487 3.99z"/><path fill="#fff" d="m565.969 244.971-1.589-3.991-1.484 3.991z"/><path fill="#568b3e" d="m643.493 265.68-4.213-11.554-3.934 11.554z"/><path fill="#4f7f3e" d="m329.093 317.678-1.449-5.343h.769l-1.46-5.423h.712l-3.331-10.561-3.328 10.561h.709l-1.457 5.423h.767l-1.449 5.343z"/><path fill="#348c5f" d="m312.936 319.852-2-6.624h1.062l-2.016-6.727h.983l-4.598-13.09-4.598 13.09h.98l-2.013 6.727h1.062l-2.003 6.624z"/><path fill="#4f7f3e" d="m306.451 324.137-2.284-7.073h1.212l-2.301-7.182h1.123l-5.252-13.979-5.251 13.979h1.12l-2.3 7.182h1.212l-2.285 7.073z"/><path fill="#d4de64" d="m235.869 310.946-2.643 5.837h13.433l-2.643-5.837h1.393l-2.605-5.889h1.462l-4.324-9.154-4.323 9.154h1.461l-2.606 5.889z"/><path fill="#fff" d="m279.72 329.699-2.411-7.462h1.278l-2.427-7.578h1.183l-5.543-14.748-5.54 14.748h1.182l-2.427 7.578h1.279l-2.411 7.462z"/><path fill="#1d5b33" d="m278.584 338.117-5.731-15.253-5.731 15.253z"/><path fill="#6ba342" d="m387.395 310.598-2.092-6.479h1.112l-2.108-6.579h1.025l-4.811-12.806-4.811 12.806h1.027l-2.108 6.579h1.11l-2.093 6.479z"/><path fill="#348c5f" d="m429.24 336.555-3.883-10.068h1.728l-3.907-10.224h1.596l-6.218-19.904-6.216 19.904h1.594l-3.905 10.224h1.726l-3.884 10.068zm-66.739-19.124-1.958-6.372h1.038l-2.59-7.404h.959l-3.881-11.67-3.881 11.67h.962l-2.591 7.404h1.039l-1.958 6.372z"/><path fill="#4f7f3e" d="m382.039 333.543-3.252-10.07h1.726l-3.278-10.224h1.597l-7.478-19.901-7.475 19.901h1.594l-3.278 10.224h1.729l-3.252 10.07zm-110.238 5.684-3.254-10.071h1.727l-3.276-10.223h1.596l-7.477-19.902-7.478 19.902h1.597l-3.277 10.223h1.727l-3.253 10.071z"/><path fill="#5d813e" d="m212.262 339.817 1.21 5.004h-14.23l1.21-5.004h-1.514l2.848-11.554h-1.563l2.922-11.557h-1.639l4.851-14.608 4.851 14.608h-1.64l2.923 11.557h-1.564l2.847 11.554zm23.58-4.232-3.253-10.07h1.724l-3.906-11.483h1.597l-6.847-18.642-6.848 18.642h1.597l-3.907 11.483h1.726l-3.252 10.07z"/><path fill="#6ba342" d="m302.612 339-3.531-12.679h1.874l-3.558-12.877h1.734l-8.118-25.055-8.121 25.055h1.734l-3.557 12.877h1.873L279.409 339z"/><path fill="#1d5b33" d="m297.938 344.818-3.278-10.224h1.597l-7.476-19.904-7.478 19.904h1.597l-3.278 10.224zm97.879-5.873-3.278-10.224h1.597l-7.478-19.904-7.478 19.904h1.597l-3.278 10.224z"/><path fill="#6ba342" d="m257.881 344.125-3.252-10.071h1.727l-3.277-10.226h1.596l-7.476-19.899-7.479 19.899h1.597l-3.277 10.226h1.727l-3.253 10.071z"/><path fill="#82b541" d="m270.276 350.82-3.278-10.226h1.597l-7.477-19.901-7.478 19.901h1.596l-3.276 10.226z"/><path fill="#6ba342" d="m276.007 339.711-7.478 19.899h14.954z"/><path fill="#fff" d="m382.039 351.748-3.531-10.068h1.873l-3.557-10.224h1.734l-8.118-19.901-8.121 19.901h1.734l-3.557 10.224h1.873l-3.531 10.068z"/><path fill="#b9d45b" d="m340.765 311.995-1.815-6.527h.964l-1.826-6.627h.891l-4.166-12.9-4.166 12.9h.891l-1.826 6.627h.962l-1.813 6.527z"/><path fill="#6ba342" d="m344.678 314.804-1.944-6.018h1.033l-1.958-6.113h.954l-4.469-11.894-4.472 11.894h.954l-1.955 6.113h1.03l-1.944 6.018z"/><path fill="#1d5b33" d="m358.443 344.122-3.254-10.07h1.726l-3.275-10.224h1.596l-7.477-19.901-7.481 19.901h1.597l-3.278 10.224h1.728l-3.251 10.07z"/><path fill="#d4de64" d="m298.436 353.877-7.478-19.899-7.478 19.899zm-63.779-9.95-7.477-19.901-7.478 19.901z"/><path fill="#6ba342" d="m168.783 353.07-5.464-14.542-5.464 14.542z"/><path fill="#1d5b33" d="m186.4 340.373-4.286-11.404-4.286 11.404z"/><path fill="#fff" d="m307.695 373.583-7.476-19.901-7.48 19.901z"/><path fill="#6ba342" d="m219.702 374.326-7.477-19.901-7.478 19.901z"/><path fill="#82b541" d="m336.009 368.827-5.73-15.256-5.734 15.256z"/><path fill="#6ba342" d="m387.77 371.259-5.729-15.253-5.733 15.253z"/><path fill="#1d5b33" d="m553.787 368.226-5.731-15.256-5.733 15.256z"/><path fill="#fff" d="m666.986 355.452-5.731-15.256-5.731 15.256z"/><path fill="#1d5b33" d="m424.289 338.117-5.733-15.256-5.731 15.256z"/><path fill="#fff" d="m251.021 353.426-5.731-15.253-5.732 15.253z"/><path fill="#1d5b33" d="m275.475 376.803-3.264-9.899-3.264 9.899z"/><path fill="#d4de64" d="m270.276 361.505-5.732-15.254-5.731 15.254zm-31.319 8.674-5.731-15.254-5.732 15.254z"/><path fill="#82b541" d="m422.503 373.346-3.944-14.658-3.948 14.658z"/><path fill="#d4de64" d="m194.29 369.381-2.793-11.897-2.791 11.897z"/><path fill="#1d5b33" d="m343.97 345.553-3.276-10.223h1.594l-7.475-19.902-7.478 19.902h1.597l-3.278 10.223z"/><path fill="#4f7f3e" d="m334.813 354.009-3.275-10.227h1.594l-7.475-19.901-7.478 19.901h1.597l-3.278 10.227zm23.253-2.454-3.278-10.223h1.597l-7.478-19.902-7.478 19.902h1.597l-3.278 10.223z"/><path fill="#d4de64" d="m356.069 360.548-5.873-22.46-5.873 22.46z"/><path fill="#fff" d="m399.687 310.198-3.884-14.914-3.883 14.914z"/><path fill="#b9d45b" d="m412.825 356.451-3.275-11.883h1.594l-7.478-23.13-7.475 23.13h1.597l-3.278 11.883z"/><path fill="#d4de64" d="m442.365 339.685-5.188-16.068-5.191 16.068z"/><path fill="#82b541" d="m439.211 353.542-6.113-9.401-6.113 9.401z"/><path fill="#d4de64" d="m512.103 352.056-5.072-7.583-5.075 7.583z"/><path fill="#6ba342" d="m326.381 355.856-3.254-10.071h1.726l-3.275-10.226h1.594l-7.475-19.899-7.478 19.899h1.594l-3.275 10.226h1.726l-3.252 10.071z"/><path fill="#4f7f3e" d="m321.32 359.268-7.475-19.902-7.478 19.902z"/><path fill="#1d5b33" d="m472.229 353.165-3.531-12.679h1.876l-3.559-12.877h1.733l-8.118-25.058-8.118 25.058h1.734l-3.557 12.877h1.873l-3.533 12.679z"/><g fill="#fff"><path d="M1094.67 312.698c-125.606-82.301-227.411-45.493-404.348 1.044-107.475 28.267-175.403 54.184-53.965 43.302 121.435-10.882 458.313-44.346 458.313-44.346z"/><path d="M943.293 265.735h9.412l-4.704-10.212zm-44.377 11.115h15.583l-7.792-25.895zm60.529-.729h15.585l-7.791-25.896zm82.315 5.939h15.583l-7.792-25.898zm-16.83.287h15.583l-7.792-25.898z"/><path d="M1029 274.571h16.882l-8.44-14.21z"/><path d="M1035.8 299.932h15.583l-7.791-25.896z"/></g><path fill="#4f7f3e" d="M1089.11 378.621c0-14.241-118.054-23.174 85.706-23.174 13.224 0-43.442-43.958-92.52-53.033-256.034-47.326-531.919 54.016-648.904 76.207z"/><path fill="#1d5b33" d="M929.186 281.828c55.87.124 142.366 3.296 198.753 36.796 35.601 21.151-311.024-37.047-198.753-36.796zm-175.417 22.987c-55.338 2.239-163.164 26.473-273.443 61.546-81.498 25.92 116.294-13.752 154.39-18.874 49.805-6.698-54.485 20.679-6.303 18.874 48.185-1.802 38.533 9.085 92.71 2.321 5.633-.706 180.736-.066 193.057-12.068 19.377-18.879-127.111-53.148-160.411-51.799z"/><path fill="#1d5b33" d="M751.764 389.64c0-6.774-126.154-12.739-198.422-12.739S354.92 377.926 354.92 389.64z"/><path fill="#4f7f3e" d="M1163.12 384.992c0-6.777-126.154-12.742-198.421-12.742-72.268 0-198.425 1.028-198.425 12.742z"/><path fill="#1d5b33" d="m1085.85 343.187 2.922 9.285 2.975-7.101 2.39 7.755 3.817-12.714 3.358 12.445 5.001-6.416 3.261 6.15 1.74-4.279 3.259 5.08 4.782-6.951 5.218 7.486 2.608-6.419 4.783 6.419 8.263-4.279 3.694 5.082 3.362-9.696 3.378 7.823 4.008-8.218 3.167 9.557 2.824-4.277 1.958 3.739 3.913-3.207 2.435 7.209h-85.906z"/><path fill="#1d5b33" d="M1184.93 357.66c0-3.717-42.219-6.993-66.405-6.993s-66.408.567-66.408 6.993zm-578.057 21.683-7.196-19.156-7.199 19.156zm-14.413-.345-4.941-12.582-4.945 12.582z"/><path fill="#348c5f" d="m938.948 289.248-3.402-9.02h1.481l-3.323-9.021h1.405l-3.212-9.021h1.291l-3.025-9.022h1.104l-2.819-9.572-2.822 9.572h1.104l-3.025 9.022h1.291l-3.212 9.021h1.407l-3.325 9.021h1.481l-3.402 9.02z"/><path fill="#568b3e" d="m1036.17 301.208-3.033-5.513h2.221l-2.883-5.512h2.071l-2.721-5.512h1.91l-2.551-5.515h1.737l-2.369-5.512h1.557l-2.176-5.514h1.365l-5.781-16.147-5.781 16.147h1.367l-2.179 5.514h1.557l-2.369 5.512h1.737l-2.551 5.515h1.911l-2.722 5.512h2.068l-2.88 5.512h2.221l-3.032 5.513z"/><path fill="#4f7f3e" d="m856.13 296.628-3.033-5.512h2.221l-2.882-5.512h2.068l-2.722-5.515h1.911l-2.551-5.512h1.739l-2.371-5.512h1.56l-2.179-5.514h1.367l-5.784-16.147-5.78 16.147h1.367l-2.179 5.514h1.56l-2.372 5.512h1.739l-2.55 5.512h1.91l-2.722 5.515h2.069l-2.88 5.512h2.218l-3.032 5.512z"/><path fill="#1d5b33" d="m927.046 292.839-3.647-5.515h2.669l-3.464-5.517h2.487l-3.273-5.513h2.298l-3.067-5.517h2.089l-2.851-5.514h1.874l-2.617-5.516h1.642l-6.951-16.155-6.951 16.155h1.644l-2.621 5.516h1.873l-2.848 5.514h2.089l-3.067 5.517h2.295l-3.272 5.513h2.49l-3.465 5.517h2.671l-3.649 5.515z"/><path fill="#348c5f" d="m896.963 285.29-3.399-9.019h1.478l-3.322-9.022h1.404l-3.212-9.021h1.294l-3.025-9.02h1.104l-2.822-9.572-2.822 9.572h1.104l-3.022 9.02h1.291l-3.212 9.021h1.404l-3.325 9.022h1.481l-3.399 9.019z"/><path fill="#b9d45b" d="M862.032 281.667h12.927l-6.463-14.546z"/><path fill="#348c5f" d="m829.525 299.379-3.401-9.022h1.481l-3.326-9.019h1.405l-3.212-9.022h1.293l-3.024-9.021h1.104l-2.822-9.572-2.82 9.572h1.102l-3.023 9.021h1.292l-3.212 9.022h1.404l-3.325 9.019h1.481l-3.402 9.022z"/><path fill="#568b3e" d="m725.921 343.443-1.094-3.497h1.463l-3.181-9.778h.862l-2.751-8.766-2.751 8.766h.862l-3.183 9.778h1.465l-1.131 3.497z"/><path fill="#348c5f" d="m743.045 308.111-1.091-3.499h1.463l-3.634-11.586h1.312l-2.748-8.764-2.751 8.764h1.312l-3.633 11.586h1.465l-1.131 3.499z"/><path fill="#fff" d="M704.681 351.74h1.509l-4.094-12.938-4.095 12.938h1.51l-2.912 10.832h1.587l-3.27 7.617h14.708l-3.618-7.617h1.586z"/><path fill="#82b541" d="M768.366 374.234a5.431 5.431 0 0 0-4.705-2.719c-.849 0-1.647.197-2.361.545a14.204 14.204 0 0 0-9.085-3.267c-2.649 0-5.125.725-7.252 1.981a6.219 6.219 0 0 0-4.648-2.092 6.18 6.18 0 0 0-2.424.488 11.013 11.013 0 0 0-8.911-4.53c-2.171 0-4.195.627-5.9 1.71a13.096 13.096 0 0 0-5.283-1.106c-4.189 0-7.915 1.96-10.323 5.009a6.037 6.037 0 0 0-6.672-1.368c-2.527-3.488-6.627-5.757-11.264-5.757a13.87 13.87 0 0 0-10.65 4.969 8.146 8.146 0 0 0-6.69-3.496 8.15 8.15 0 0 0-6.798 3.647 4.055 4.055 0 0 0-2.949-1.268 4.08 4.08 0 0 0-3.162 1.502 12.664 12.664 0 0 0-9.646-4.448c-4.709 0-8.811 2.567-11.001 6.377a5.552 5.552 0 0 0-8.168 3.823z"/><path fill="#4f7f3e" d="M685.362 350.541a11.22 11.22 0 0 0-3.737 1.357c-3.199-3.647-8.16-5.591-13.288-4.703-4.774.827-8.584 3.915-10.531 7.978-2.488.725-5.534 3.829-5.315 5.014a17.35 17.35 0 0 1 5.892-3.035l.882-.258.398-.833a12.377 12.377 0 0 1 9.028-6.835c4.265-.738 8.523.77 11.382 4.032l1.12 1.272 1.465-.848a9.18 9.18 0 0 1 3.057-1.11c3.293-.569 8.719 1.505 11.807 4.33-2.1-4.511-7.02-7.249-12.16-6.361z"/><path fill="#568b3e" d="m963.79 318.111-1.244 3.654h14.603l-1.244-3.654h1.552l-2.922-8.445h1.607l-3.001-8.443h1.684l-4.978-13.438-4.977 13.438h1.684l-2.999 8.443h1.602l-2.919 8.445z"/><path fill="#1d5b33" d="m816.461 333.812-3.559-6.158h2.606l-3.381-6.155h2.429l-3.193-6.155h2.24l-2.994-6.158h2.04l-2.783-6.155h1.829l-2.556-6.153h1.605l-6.785-18.03-6.785 18.03h1.605l-2.556 6.153h1.828l-2.782 6.155h2.039l-2.993 6.158h2.24l-3.191 6.155h2.427l-3.384 6.155h2.609l-3.56 6.158zm-52.84-26.465-3.304-8.606h2.242l-3.257-8.605h2.19l-3.196-8.606h2.131l-6.655-18.358-6.659 18.358h2.132l-3.196 8.606h2.192l-3.259 8.605h2.242l-3.307 8.606h2.282l-1.223 3.149h17.588l-1.222-3.149z"/><path fill="#568b3e" d="m805.421 343.308-4.975-8.603h3.645l-4.727-8.603h3.393l-4.461-8.6h3.131l-4.185-8.601h2.851l-3.886-8.602h2.556l-3.573-8.601h2.242l-9.48-25.195-9.483 25.195h2.242l-3.573 8.601h2.556l-3.889 8.602h2.853l-4.184 8.601h3.13l-4.46 8.6h3.393l-4.724 8.603h3.639l-4.972 8.603z"/><path fill="#1d5b33" d="m876.137 316.864-5.446-11.715h2.371l-5.328-11.717h2.253l-5.146-11.715h2.068L862.066 270h1.769l-4.519-12.429L854.797 270h1.768l-4.843 11.717h2.068l-5.143 11.715h2.248l-5.326 11.717h2.372l-5.447 11.715z"/><path fill="#6ba342" d="m893.079 305.492-4.727-10.166h2.058l-4.621-10.165h1.952l-4.463-10.166h1.797l-4.206-10.164h1.536l-3.92-10.786-3.921 10.786h1.533l-4.202 10.164h1.794l-4.463 10.166h1.952l-4.622 10.165h2.061l-4.727 10.166z"/><path fill="#1d5b33" d="m1008.79 289.248-3.402-9.022h1.481l-3.325-9.02h1.407l-3.212-9.02h1.291l-3.025-9.022h1.107l-2.825-9.57-2.819 9.57h1.104l-3.022 9.022h1.288l-3.209 9.02h1.404l-3.325 9.02h1.481l-3.402 9.022zm-96.096-16.127h12.926l-6.466-14.548zm-15.454 15.12h12.929l-6.466-14.547zm41.6-4.297h12.927l-6.464-14.546zM625.865 326.4h12.927l-6.466-14.545zm-65.651 17.043h12.929l-6.466-14.545z"/><path fill="#348c5f" d="M580.774 341.569h12.93l-6.466-14.547z"/><path fill="#1d5b33" d="M515.665 359.065h12.927l-6.463-14.547zm138.984-33.029h13.306l-6.655-23.253z"/><path fill="#fff" d="M1122.66 342.594h9.926l-4.964-11.169z"/><path fill="#b9d45b" d="m911.413 319.141-5.581-13.91h2.43l-5.455-13.91h2.306l-5.27-13.907h2.119l-4.964-13.909h1.812l-4.629-14.759-4.63 14.759h1.813l-4.964 13.909h2.121l-5.27 13.907h2.306l-5.457 13.91h2.429l-5.578 13.91z"/><path fill="#568b3e" d="m926.258 332.057-3.873-8h2.835l-3.678-7.999h2.64l-3.473-8h2.437l-3.256-7.999h2.221l-3.028-8h1.99l-2.783-7.999h1.747l-7.383-23.431-7.378 23.431h1.745l-2.785 7.999h1.992l-3.028 8h2.221l-3.256 7.999h2.437l-3.476 8h2.643l-3.678 7.999h2.835l-3.873 8z"/><path fill="#348c5f" d="M985.683 288.515 982.65 283h2.222l-2.883-5.512h2.069l-2.72-5.512h1.911l-2.554-5.513h1.739l-2.368-5.512h1.557l-2.179-5.513h1.367l-5.781-16.148-5.783 16.148h1.367l-2.179 5.513h1.56l-2.371 5.512h1.739l-2.551 5.513h1.91l-2.724 5.512h2.071l-2.88 5.512h2.221l-3.035 5.515z"/><path fill="#1d5b33" d="M970.925 291.216h12.927l-6.466-14.545z"/><path fill="#568b3e" d="m1004.03 313.178-3.792-7.544h2.777l-3.602-7.544h2.585l-3.402-7.546h2.388l-3.191-7.541h2.174l-2.962-7.544h1.947l-2.724-7.544h1.71l-7.228-22.096-7.228 22.096h1.708l-2.725 7.544h1.95l-2.964 7.544h2.174l-3.191 7.541h2.39l-3.405 7.546h2.588l-3.602 7.544h2.777l-3.791 7.544z"/><path fill="#1d5b33" d="m1071.12 309.747-1.905 3.99h21.214l-1.905-3.99h2.587l-3.404-7.543h2.387l-3.188-7.544h2.173l-2.964-7.544h1.95l-2.724-7.544h1.707l-7.228-22.095-7.227 22.095h1.707l-2.722 7.544h1.948l-2.965 7.544h2.177l-3.191 7.544h2.387l-3.402 7.543z"/><path fill="#6ba342" d="m973.947 356.135-2.316 6.819h27.253l-2.319-6.819h2.899l-5.454-15.762h2.995l-5.599-15.757h3.138l-9.285-25.084-9.293 25.084h3.143l-5.599 15.757h2.993l-5.451 15.762z"/><path fill="#4f7f3e" d="m947.999 305.713-2.859-7.583h2.095l-2.717-7.586h1.95l-2.564-7.583h1.8l-2.403-7.586h1.639l-2.235-7.585h1.468l-2.053-7.586h1.289l-5.447-22.216-5.449 22.216h1.289l-2.053 7.586h1.468l-2.232 7.585h1.639l-2.403 7.586h1.797l-2.564 7.583h1.95l-2.714 7.586h2.092l-2.856 7.583z"/><path fill="#b9d45b" d="m971.052 325.391-4.142-9.286h3.032l-3.936-9.28h2.827l-3.718-9.285h2.609l-3.486-9.283h2.376l-3.241-9.285h2.13l-2.975-9.283h1.868l-7.9-27.192-7.896 27.192h1.865l-2.977 9.283h2.131l-3.241 9.285h2.377l-3.486 9.283h2.611l-3.718 9.285h2.825l-3.934 9.28h3.033l-4.142 9.286z"/><path fill="#568b3e" d="m884.906 338.526-3.033-5.512h2.221l-2.882-5.513h2.071l-2.722-5.512h1.91l-2.553-5.512h1.739l-2.369-5.515h1.557l-2.179-5.512h1.368l-5.781-16.147-5.784 16.147h1.368l-2.179 5.512h1.56l-2.372 5.515h1.739l-2.55 5.512h1.91l-2.722 5.512h2.069l-2.88 5.513h2.218l-3.033 5.512z"/><path fill="#1d5b33" d="m934.727 345.569-3.033-5.512h2.219l-2.883-5.513h2.071l-2.722-5.517h1.91l-2.55-5.512h1.736l-2.369-5.513h1.558l-2.179-5.512h1.367l-5.781-16.146-5.781 16.146h1.368l-2.179 5.512h1.557l-2.369 5.513h1.739l-2.553 5.512h1.91l-2.722 5.517h2.069l-2.88 5.513h2.221l-3.033 5.512z"/><path fill="#6ba342" d="m1024.93 316.09-3.792-7.544h2.775l-3.602-7.544h2.587l-3.404-7.544h2.39l-3.191-7.543h2.174l-2.964-7.547h1.949l-2.724-7.542h1.707l-4.381-14.783h1.367l-4.213-13.133-4.213 13.133h1.37l-4.385 14.783h1.71l-2.724 7.542h1.95l-2.967 7.547h2.173l-3.188 7.543h2.387l-3.401 7.544h2.587l-3.604 7.544h2.777l-3.792 7.544z"/><path fill="#1d5b33" d="m1068.6 304.775-2.45-4.453h1.794l-2.326-4.453h1.67l-2.197-4.453h1.541l-2.061-4.455h1.405l-1.916-4.453h1.26l-1.76-4.453h1.104l-4.669-13.045-4.672 13.045h1.104l-1.76 4.453h1.259l-1.915 4.453h1.407l-2.063 4.455h1.544l-2.2 4.453h1.673l-2.33 4.453h1.795l-2.451 4.453z"/><path fill="#348c5f" d="m1110 315.697-2.45-4.453h1.794l-2.326-4.453h1.67l-2.197-4.453h1.541l-2.06-4.456h1.404l-1.916-4.453h1.26l-1.76-4.455h1.104l-4.67-13.043-4.671 13.043h1.104l-1.76 4.455h1.259l-1.915 4.453h1.404l-2.06 4.456h1.541l-2.198 4.453h1.674l-2.327 4.453h1.792l-2.451 4.453z"/><path fill="#1d5b33" d="m1004.5 322.35-1.968 4.801h14.413l-1.966-4.801h1.586l-2.121-5.512h1.447l-1.971-5.512h1.294l-1.808-5.515h1.136l-4.804-16.147-4.8 16.147h1.135l-1.81 5.515h1.294l-1.968 5.512h1.446l-2.121 5.512z"/><path fill="#568b3e" d="m972.949 380.226-5.318-9.668h3.895l-5.054-9.67h3.628l-4.771-9.665h3.349l-4.475-9.667h3.049l-4.155-9.668h2.73l-3.818-9.667h2.397l-10.141-28.317-10.137 28.317h2.398l-3.823 9.667h2.732l-4.158 9.668h3.054l-4.474 9.667h3.346l-4.772 9.665h3.631l-5.053 9.67h3.894l-5.32 9.668z"/><path fill="#82b541" d="m797.466 349.252-3.032-5.514h2.218l-2.88-5.515h2.069l-2.722-5.51h1.91l-2.55-5.515h1.739l-2.372-5.512h1.557l-2.176-5.515h1.367l-5.783-16.147-5.781 16.147h1.367l-2.179 5.515h1.558l-2.369 5.512h1.739l-2.553 5.515h1.91l-2.722 5.51h2.071l-2.883 5.515h2.222l-3.033 5.514z"/><path fill="#1d5b33" d="m761.31 360.783-3.033-5.512h2.222l-2.883-5.515h2.071l-2.722-5.512h1.908l-2.551-5.515h1.739l-2.371-5.513h1.56l-2.179-5.512h1.365l-5.781-16.147-5.781 16.147h1.367l-2.179 5.512h1.56l-2.371 5.513h1.739l-2.554 5.515h1.911l-2.72 5.512h2.069l-2.883 5.515h2.221l-3.032 5.512z"/><path fill="#6ba342" d="m839.491 362.045-3.033-5.512h2.221l-2.883-5.512h2.069l-2.719-5.513h1.907l-2.55-5.515h1.739l-2.372-5.512h1.56l-2.179-5.512h1.368l-5.784-16.147-5.781 16.147h1.368l-2.179 5.512h1.559l-2.371 5.512h1.739l-2.553 5.515h1.91l-2.719 5.513h2.068l-2.882 5.512h2.221l-3.033 5.512z"/><path fill="#82b541" d="m850.823 324.26-4.843-8.387h3.547l-4.603-8.379h3.307l-4.351-8.384h3.052l-4.079-8.384h2.782l-3.789-8.382h2.49l-3.481-8.381h2.185l-9.241-24.555-9.238 24.555h2.185l-3.484 8.381h2.493l-3.789 8.382h2.777l-4.076 8.384h3.051l-4.35 8.384h3.307l-4.604 8.379h3.552l-4.848 8.387z"/><path fill="#1d5b33" d="m847.266 340.323-3.259-5.639h2.387l-3.099-5.639h2.224l-2.922-5.638h2.05l-2.743-5.642h1.871l-2.548-5.636h1.676l-2.343-5.641h1.471l-6.216-16.518-6.216 16.518h1.468l-2.34 5.641h1.676l-2.551 5.636h1.871l-2.743 5.642h2.053l-2.925 5.638h2.224l-3.096 5.639h2.384l-3.259 5.639z"/><path fill="#6ba342" d="m868.564 368.888-3.062-10.624h1.613l-3.088-10.621h1.636l-3.114-10.627h1.665l-3.157-10.621h1.708l-3.215-10.624h1.766l-3.302-10.622h1.852l-5.478-16.908-5.475 16.908h1.852l-3.301 10.622h1.768l-3.217 10.624h1.707l-3.157 10.621h1.666l-3.115 10.627h1.637l-3.086 10.621h1.61l-3.059 10.624zm-31.384-5.267-3.499-10.624h1.841l-3.528-10.624h1.871l-3.562-10.624h1.905l-3.61-10.622h1.952l-3.675-10.623h2.021l-3.776-10.624h2.118l-6.263-16.906-6.26 16.906h2.115l-3.773 10.624h2.018l-3.675 10.623h1.952l-3.61 10.622h1.905l-3.562 10.624h1.871l-3.528 10.624h1.842l-3.497 10.624z"/><path fill="#6ba342" d="m831.915 373.889-3.075-7.214h1.618l-3.099-7.212h1.642l-3.13-7.215h1.676l-3.176-7.214h1.718l-3.233-7.212h1.776l-3.32-7.214h1.863l-5.507-11.48-5.504 11.48h1.86l-3.32 7.214h1.779l-3.233 7.212h1.715l-3.172 7.214h1.675l-3.132 7.215h1.644l-3.102 7.212h1.621l-3.078 7.214z"/><path fill="#b9d45b" d="m783.781 358.548-3.499-10.623h1.841l-3.525-10.624h1.868l-3.562-10.624h1.905l-3.61-10.622h1.952l-3.675-10.624h2.018l-3.773-10.624h2.116l-6.261-16.905-6.261 16.905h2.116l-3.773 10.624h2.016l-3.673 10.624h1.952l-3.61 10.622h1.905l-3.562 10.624h1.868l-3.525 10.624h1.841l-3.499 10.623z"/><path fill="#6ba342" d="m1045.44 323.963-2.516-5.513h1.841l-2.389-5.512h1.715l-2.258-5.512h1.586l-2.118-5.515h1.444l-1.971-5.512h1.296l-1.81-5.512h1.135l-4.8-16.15-4.801 16.15h1.133l-1.81 5.512h1.296l-1.971 5.512h1.444l-2.118 5.515h1.586l-2.258 5.512h1.718l-2.395 5.512h1.847l-2.519 5.513z"/><path fill="#1d5b33" d="m1066.96 362.954-5.107-9.283h3.742l-4.854-9.285h3.486l-4.584-9.283h3.214l-4.295-9.283h2.93l-3.994-9.285h2.624l-3.668-9.28h2.301l-9.734-27.195-9.738 27.195h2.303l-3.671 9.28h2.627l-3.992 9.285h2.928l-4.298 9.283h3.217l-4.582 9.283h3.484l-4.854 9.285h3.742l-5.11 9.283z"/><path fill="#b9d45b" d="m1026.37 368.213-1.566 4.598h18.371l-1.563-4.598h1.956l-3.676-10.624h2.018l-3.773-10.624h2.116l-6.261-16.905-6.26 16.905h2.116l-3.776 10.624h2.018l-3.673 10.624z"/><path fill="#568b3e" d="m728.669 356.153-1.352 4.327h15.894l-1.354-4.327h1.689l-3.181-9.994h1.75l-3.267-9.994h1.831l-5.415-15.904-5.417 15.904h1.831l-3.265 9.994h1.747l-3.18 9.994z"/><path fill="#d4de64" d="m827.431 362.88-1.563 4.598h18.371l-1.563-4.598h1.953l-3.676-10.621h2.018l-3.773-10.627h2.119l-6.266-16.905-6.258 16.905h2.116l-3.774 10.627h2.019l-3.679 10.621zm20.992 11.143-1.563 4.598h18.371l-1.565-4.598h1.955l-3.678-10.624h2.021l-3.776-10.621h2.118l-6.26-16.908-6.263 16.908h2.118l-3.776 10.621h2.019l-3.676 10.624zm81.458 2.656-1.562 4.601h18.37l-1.562-4.601h1.95l-3.676-10.621h2.021l-3.776-10.627h2.119l-6.264-16.905-6.26 16.905h2.118l-3.776 10.627h2.021l-3.678 10.621z"/><path fill="#fff" d="m898.436 360.825-1.562 4.598h18.37l-1.56-4.598h1.953l-3.678-10.624h2.018l-3.773-10.624h2.118l-6.263-16.905-6.261 16.905h2.119l-3.776 10.624h2.018l-3.675 10.624z"/><path fill="#6ba342" d="m869.926 347.938-1.562 4.6h18.37l-1.562-4.6h1.953l-3.676-10.622h2.018l-3.773-10.624h2.116l-6.261-16.905-6.263 16.905h2.119l-3.776 10.624h2.021l-3.676 10.622z"/><path fill="#b9d45b" d="m1018.88 359.718-4.258-11.472h2.841l-8.875-24.463-8.871 24.463h2.84l-4.261 11.472h2.922l-2.787 7.368h20.317l-2.79-7.368z"/><path fill="#6ba342" d="m1163.06 335.227-4.261-11.473h2.841l-8.872-24.462-8.874 24.462h2.84l-4.258 11.473h2.92l-2.785 7.367h20.315l-2.788-7.367z"/><path fill="#fff" d="M826.258 376.795 819.6 358.44l-6.656 18.355h2.131l-1.391 3.747h11.831l-1.389-3.747z"/><path fill="#82b541" d="M908.125 389.688h19.801l-9.899-27.298zm139.695-20.057h14.94l-7.47-20.595zm-43.68 13.477h13.955l-6.977-10.212zm77.61-5.106h9.752l-4.875-9.762zm24.62 3.402h6.671l-3.335-6.619z"/><path fill="#1d5b33" d="m776.121 373.807-3.304-8.605h2.24l-3.257-8.606h2.192l-3.196-8.608h2.131l-6.655-18.355-6.659 18.355h2.132l-3.196 8.608h2.192l-3.259 8.606h2.242l-3.304 8.605h2.279l-1.223 3.149h17.588l-1.225-3.149zm-82.375-51.689-3.307-8.608h2.242l-3.256-8.603h2.192l-3.196-8.606h2.131l-6.658-18.357-6.656 18.357h2.132l-3.199 8.606h2.192l-3.257 8.603h2.24l-3.304 8.608h2.282l-1.223 3.149h17.586l-1.223-3.149z"/><path fill="#82b541" d="m712.925 330.068-3.032-5.515h2.218l-2.88-5.515h2.069l-2.722-5.51h1.91l-2.553-5.514h1.741l-2.371-5.513h1.557l-2.176-5.515h1.365l-5.781-16.146-5.781 16.146h1.365l-2.177 5.515h1.557l-2.368 5.513h1.736l-2.55 5.514h1.91l-2.722 5.51h2.071l-2.883 5.515h2.222l-3.033 5.515z"/><path fill="#d4de64" d="m743.917 377.156-8.653-23.862-8.656 23.862h2.772l-1.675 4.509h15.116l-1.676-4.509z"/><path fill="#6ba342" d="m800.847 375.675-4.261-11.469h2.841l-8.875-24.466-8.871 24.466h2.843l-4.264 11.469h2.923l-1.726 4.564h18.194l-1.726-4.564z"/><path fill="#1d5b33" d="m731.512 312.488-4.261-11.473h2.841l-8.872-24.462-8.874 24.462h2.843l-4.261 11.473h2.922l-1.726 4.563h18.194l-1.728-4.563z"/><path fill="#d4de64" d="m905.54 369.304-6.124-12.445h4.084l-12.75-26.549L878 356.859h4.084l-6.121 12.445h4.197l-1.631 3.254h24.444l-1.631-3.254z"/><path fill="#b9d45b" d="m1091.03 340.086-4.643-9.594h3.096l-9.668-20.465-9.667 20.465h3.099l-4.646 9.594h3.183l-1.236 2.508h18.534l-1.235-2.508z"/><path fill="#82b541" d="m992.344 376.252-8.95-22.976h2.474l-9.863-26.829-9.857 26.829h2.474l-8.951 22.976h3.855l-3.143 10.527h31.25l-3.144-10.527z"/><path fill="#4f7f3e" d="m656.991 330.777-3.401-9.025h1.481l-3.326-9.019h1.407l-3.212-9.02h1.292l-3.025-9.022h1.104l-2.82-9.572-2.822 9.572h1.104l-3.024 9.022h1.291l-3.212 9.02h1.407l-3.326 9.019h1.481l-3.401 9.025z"/><path fill="#dbf1fd" d="M1089.35 134.518c4.97-5.413 12.103-8.806 20.031-8.806a27.059 27.059 0 0 1 17.349 6.26 17.542 17.542 0 0 1 6.584-1.805c2.369-11.608 12.635-20.343 24.945-20.343 7.91 0 14.979 3.606 19.646 9.264 9.132.362 16.689 6.828 18.708 15.43zM815.02 181.74a9.19 9.19 0 0 0-10.207-4.714c-1.373-6.983-7.526-12.252-14.911-12.252-7.929 0-14.434 6.07-15.135 13.815a4.928 4.928 0 0 0-4.474.972 21.824 21.824 0 0 0-13.794-4.89 21.85 21.85 0 0 0-16.118 7.069z"/><path fill="#fff" d="M870.164 222.674a7.884 7.884 0 0 0-5.963-2.72 7.874 7.874 0 0 0-5.96 2.72zm-23.362-2.202a6.93 6.93 0 0 0-6.057-1.802c-.567-4.494-4.398-7.972-9.046-7.972-4.529 0-8.287 3.302-8.998 7.63a9.263 9.263 0 0 0-3.309-.609 9.276 9.276 0 0 0-6.604 2.753z"/><path fill="#dbf1fd" d="M184.985 48.99c7.242-15.402 22.884-26.069 41.031-26.069a45.118 45.118 0 0 1 24.477 7.183C261.174 17.795 276.922 10 294.496 10c25.419 0 47.01 16.289 54.967 38.99zm1.041 146.074a20.857 20.857 0 0 0-12.207-4.372 13.377 13.377 0 0 0-12.888-5.702 21.734 21.734 0 0 0-18.642-10.507 21.726 21.726 0 0 0-19.884 12.903 16.724 16.724 0 0 0-6.429-1.277 16.71 16.71 0 0 0-14.826 8.955zM377.09 48.99c4.654-4.264 10.827-6.891 17.636-6.891a26.04 26.04 0 0 1 17.683 6.891zm77.074 0c6.809-6.798 16.202-11.005 26.584-11.005 10.386 0 19.788 4.206 26.599 11.005zm300.164 145.791h-55.067a1.443 1.443 0 0 1-1.444-1.445c0-.798.645-1.445 1.444-1.445h55.067a1.444 1.444 0 0 1 0 2.89zM450.639 62.211H255.092a3.521 3.521 0 0 0-3.523 3.523h202.595a3.523 3.523 0 0 0-3.525-3.523zm-286.61 149.08a3.718 3.718 0 0 0-3.718-3.718H36.157a3.717 3.717 0 0 0-3.717 3.718zm928.421-65.424a2.253 2.253 0 0 0-2.253-2.253H989.373a2.253 2.253 0 0 0-2.256 2.253zm-726.59 28.616a6.975 6.975 0 0 0-4.692-1.805 6.966 6.966 0 0 0-3.007.677c-.564-5.489-5.201-9.771-10.84-9.771-4.603 0-8.537 2.856-10.136 6.892a12.203 12.203 0 0 0-5.244-1.176 12.252 12.252 0 0 0-10.015 5.183zm686.72-38.841h-18.911a3.84 3.84 0 0 1 3.839-3.839h11.235a3.838 3.838 0 0 1 3.837 3.839z"/><path fill="#fff" d="M1131.89 274.408h-22.592a1.86 1.86 0 0 1 1.861-1.86h18.874c1.025 0 1.857.832 1.857 1.86zm14-5.161a3.895 3.895 0 0 0-7.478 0z"/><path fill="#dbf1fd" d="M64.346 242.779a2.422 2.422 0 1 1-4.844.002 2.422 2.422 0 0 1 4.844-.002zm33.888-.479c.878 0 1.589.621 1.589 1.389s-.711 1.388-1.589 1.388c-.877 0-1.588-.62-1.588-1.388s.711-1.389 1.588-1.389zm-15.978-9.849a3.385 3.385 0 1 1-6.77 0 3.385 3.385 0 0 1 6.77 0zm564.72-54.414a3.704 3.704 0 1 1-7.407-.001 3.704 3.704 0 0 1 7.407.001z"/><path fill="#fff" d="M593.472 197.094A2.093 2.093 0 1 1 591.38 195c1.156 0 2.092.938 2.092 2.094zm-13.997 6.704a1.33 1.33 0 1 1-2.657 0 1.33 1.33 0 0 1 2.657 0z"/><path fill="#dbf1fd" d="M662.714 136.143a2.236 2.236 0 1 1-4.473.001 2.236 2.236 0 0 1 4.473-.001zm30.355 28.631a3.969 3.969 0 1 1-7.939 0 3.969 3.969 0 1 1 7.939 0zm450.941 26.052a3.968 3.968 0 1 1-3.968-3.969 3.968 3.968 0 0 1 3.968 3.969zm47.81 40.181a5.802 5.802 0 1 1-11.603 0 5.802 5.802 0 0 1 11.603 0z"/><path fill="#fff" d="M898.847 219.954a2.203 2.203 0 1 1-4.4 0 2.203 2.203 0 0 1 4.4 0zm-20.31-10.879a1.438 1.438 0 1 1-2.876 0 1.438 1.438 0 0 1 2.876 0z"/><path fill="#dbf1fd" d="M1101.7 225.355a2.518 2.518 0 1 1-5.036-.002 2.518 2.518 0 0 1 5.036.002zM100.263 139.407a3.703 3.703 0 1 0-5.633 4.808 3.703 3.703 0 0 0 5.633-4.808zm39.78-4.373a2.235 2.235 0 1 0-.25 3.154 2.238 2.238 0 0 0 .25-3.154zm75.31-24.199a3.969 3.969 0 1 0-6.039 5.152 3.969 3.969 0 0 0 6.039-5.152z"/><path fill="#fff" d="M169.173 263.109a4.187 4.187 0 1 1-8.374 0 4.187 4.187 0 0 1 8.374 0zm23.37-20.275a2.49 2.49 0 1 1-4.981.001 2.49 2.49 0 0 1 4.981-.001zm21.994 8.81a1.348 1.348 0 1 1-2.696.002 1.348 1.348 0 0 1 2.696-.002z"/><path fill="#dbf1fd" d="M293.163 144.987a1.713 1.713 0 1 1 1.78-2.927 1.713 1.713 0 0 1-1.78 2.927zm-39.051 14.083a3.407 3.407 0 1 1 3.538-5.82 3.407 3.407 0 0 1-3.538 5.82z"/></g></svg>